<?xml version="1.0" encoding="utf-8"?><!-- Uploaded to: SVG Repo, www.svgrepo.com, Generator: SVG Repo Mixer Tools -->
<svg width="800px" height="800px" viewBox="0 0 400 400" fill="none" xmlns="http://www.w3.org/2000/svg">
<path d="M23.9525 225.452C24.2929 213.269 21.6484 177.011 23.9525 171.491C27.8435 162.168 250.791 174.09 287.658 170.622" stroke="currentColor" stroke-opacity="0.9" stroke-width="16" stroke-linecap="round" stroke-linejoin="round"/>
<path d="M291.264 171.49C289.802 187.924 289.047 204.889 289.672 221.405" stroke="currentColor" stroke-opacity="0.9" stroke-width="16" stroke-linecap="round" stroke-linejoin="round"/>
<path d="M344.319 229.241C242.179 230.322 135.915 227.803 36.7383 225.452" stroke="currentColor" stroke-opacity="0.9" stroke-width="16" stroke-linecap="round" stroke-linejoin="round"/>
<path d="M311.224 175.538C311.264 192.218 311.275 209.275 309.95 225.452" stroke="currentColor" stroke-opacity="0.9" stroke-width="16" stroke-linecap="round" stroke-linejoin="round"/>
<path d="M310.594 172.822C321.392 173.642 333.575 172.072 342.971 172.822" stroke="currentColor" stroke-opacity="0.9" stroke-width="16" stroke-linecap="round" stroke-linejoin="round"/>
<path d="M347.018 178.236C354.259 193.666 402.379 230.848 358.354 230.848" stroke="currentColor" stroke-opacity="0.9" stroke-width="16" stroke-linecap="round" stroke-linejoin="round"/>
<path d="M351.544 226.801C376.454 232.786 340.523 251.474 350 230.829" stroke="currentColor" stroke-opacity="0.9" stroke-width="16" stroke-linecap="round" stroke-linejoin="round"/>
<path d="M336.621 158C337.155 180.648 336.162 205.101 335.666 226.801" stroke="currentColor" stroke-opacity="0.9" stroke-width="16" stroke-linecap="round" stroke-linejoin="round"/>
<path d="M53.4353 225.631C68.2799 227.416 64.7215 233.929 57.3104 236.82C48.1976 240.375 40.1811 230.981 52.4172 222.754" stroke="currentColor" stroke-opacity="0.9" stroke-width="16" stroke-linecap="round" stroke-linejoin="round"/>
<path d="M85.5508 222.754C95.2639 236.67 72.7339 242.589 76.2332 226.912" stroke="currentColor" stroke-opacity="0.9" stroke-width="16" stroke-linecap="round" stroke-linejoin="round"/>
<path d="M273.053 230.848C278.933 240.679 259.516 249.001 262.303 231.253" stroke="currentColor" stroke-opacity="0.9" stroke-width="16" stroke-linecap="round" stroke-linejoin="round"/>
<path d="M363.206 200.495H337.574" stroke="currentColor" stroke-opacity="0.9" stroke-width="16" stroke-linecap="round" stroke-linejoin="round"/>
</svg>